<svg width="108" height="16" viewBox="0 0 108 16" fill="none" xmlns="http://www.w3.org/2000/svg">
<path fill-rule="evenodd" clip-rule="evenodd" d="M8.53579 7.14095C9.08733 7.71309 9.32265 8.57392 9.32307 9.63513V10.541C9.32314 11.9398 8.93369 13.0159 8.0434 13.6252C7.20654 14.198 5.95669 14.4531 4.36021 14.4531H4.35725L4.3543 14.4531C3.09238 14.4332 1.82042 14.3282 0.571772 14.1405L0.2455 14.0915V11.7207L0.708836 11.8211C2.17474 12.1391 3.41608 12.295 4.47317 12.2943C5.32051 12.2944 5.92189 12.1957 6.30975 12.0275C6.48702 11.9556 6.56706 11.8868 6.64527 11.7391C6.73539 11.5898 6.76871 11.4358 6.76627 11.1772V9.55844C6.76641 9.09974 6.63974 8.86378 6.47538 8.7387C6.28759 8.5958 5.86987 8.4794 5.11352 8.4794H3.68108C2.41932 8.47907 1.427 8.22305 0.832355 7.59947C0.256446 6.99554 0 6.13555 0 5.08737V4.08529C0.000262795 2.99567 0.384722 2.13206 1.19273 1.571C1.9828 1.0224 3.35047 0.789851 5.18892 0.789851H5.19095L5.19298 0.789873C6.25618 0.801403 7.32866 0.873613 8.38415 1.00474L8.72005 1.04651V3.24425L8.27842 3.17511C6.89401 2.9582 5.83023 2.85161 5.0577 2.85208C4.48477 2.85186 4.02727 2.87958 3.65634 2.93677C3.28687 2.99334 3.05682 3.07266 2.93005 3.15131C2.68875 3.301 2.53723 3.55807 2.53723 4.02747V5.4533C2.53741 5.79063 2.64625 5.97233 2.81686 6.08505C3.01677 6.21713 3.44966 6.32057 4.20895 6.32057H5.67908C6.96459 6.32066 7.96765 6.55188 8.53579 7.14095ZM15.6083 3.9699C16.9572 3.97007 18.0245 4.20685 18.7338 4.75243C19.4798 5.32627 19.7984 6.29804 19.7984 7.53476V10.0241H13.6728V11.0031C13.673 11.5592 13.8568 11.8811 14.1672 12.0708C14.5312 12.2934 15.1203 12.4295 15.9852 12.4295C16.8238 12.4306 17.7998 12.2831 18.9614 11.9794L19.4402 11.8544V13.9888L19.1434 14.0577C18.0402 14.3132 16.8919 14.4474 15.7607 14.453L15.7591 14.453C14.3331 14.4531 13.1963 14.2124 12.4063 13.6739C11.5896 13.1172 11.192 12.276 11.192 11.2154V7.53464C11.1923 6.32313 11.5336 5.36738 12.3051 4.77975C13.046 4.21543 14.1732 3.9699 15.6083 3.9699ZM38.9642 0.771084H41.4256V14.2607H39.0019V13.8747C38.915 13.9268 38.8238 13.9754 38.73 14.0206C38.1111 14.3188 37.3023 14.4534 36.3313 14.4534C34.9943 14.4531 33.9529 14.2429 33.3066 13.7361C32.6268 13.203 32.3486 12.2744 32.3486 11.1001V6.9954C32.3486 5.97907 32.6588 5.16598 33.3554 4.65942C34.0227 4.17418 35.0748 3.96992 36.4242 3.96979C37.126 3.96455 37.8533 4.07039 38.5256 4.2756L38.5272 4.27608L38.5288 4.27657C38.6888 4.3272 38.8404 4.38838 38.9786 4.46139C38.969 3.93422 38.9642 3.50667 38.9642 3.17981V0.771084ZM36.8403 5.9542C37.6564 5.95421 38.2119 6.0582 38.55 6.22718C38.8577 6.38093 38.9641 6.57159 38.9642 6.82126V11.427C38.9642 11.8288 38.8179 12.0588 38.5403 12.2029C38.2037 12.3775 37.6057 12.488 36.6895 12.4877C35.8716 12.4877 35.3788 12.3759 35.1307 12.2191C34.9283 12.0912 34.7917 11.8645 34.7917 11.428V6.82175C34.7917 6.35675 34.9246 6.20398 35.0411 6.14558C35.134 6.09903 35.3212 6.04703 35.6383 6.00971C35.9532 5.97242 36.3466 5.95422 36.8403 5.9542ZM50.6566 1.21395C50.2623 1.11947 49.8466 1.05401 49.4428 1.02281L49.4404 1.02264C49.0681 0.99657 48.6214 0.983292 48.1136 0.983169H43.7345V14.2606H46.3284V9.75103H47.7738C49.2853 9.75103 50.5053 9.52656 51.3962 9.03948C52.3509 8.51753 52.8124 7.61867 52.8123 6.4363V3.83781C52.8123 3.83781 52.711 2.92514 52.5145 2.53881L52.5065 2.54078L52.5133 2.53712C52.3403 2.21333 52.0705 1.89987 51.7779 1.68289L51.7701 1.67717L51.762 1.67186C51.434 1.45865 51.0379 1.29461 50.6566 1.21395ZM49.6938 7.43631L49.6942 7.43612C50.0554 7.24042 50.2561 6.90871 50.2561 6.33997V4.05844L50.2564 4.05088C50.2712 3.81139 50.2182 3.6348 50.0751 3.44796C49.9249 3.26007 49.7662 3.16166 49.5334 3.11161L49.5238 3.10935L49.5145 3.1066C49.2637 3.03295 49.0232 2.98477 48.7639 2.95626C48.5545 2.93797 48.2991 2.9291 47.9814 2.92916H46.3098V7.80479H48.0191C48.7061 7.80709 49.233 7.6908 49.6938 7.43631ZM63.3843 4.16224V14.2606H60.9224V13.9031C60.8165 13.9722 60.7015 14.0341 60.5781 14.0888C60.008 14.3417 59.2414 14.4538 58.3083 14.4538C57.0827 14.4537 56.1194 14.2341 55.5535 13.6798C55.0008 13.1384 54.7591 12.3493 54.7591 11.3897V4.16297H57.2211V11.2971L57.221 11.3009C57.217 11.47 57.2311 11.6171 57.2671 11.7815C57.3011 11.9106 57.3464 11.9998 57.4305 12.1042C57.5411 12.2377 57.6466 12.2998 57.817 12.3332L57.8238 12.3347L57.8306 12.3365C58.152 12.4223 58.4572 12.4582 58.7893 12.4493L58.7938 12.4492L58.7983 12.4492C59.74 12.4489 60.3129 12.3554 60.5903 12.2186C60.7989 12.1158 60.9224 11.9402 60.9224 11.5821V4.16224H63.3843ZM67.9369 0.771076V14.2606H65.4749V0.771076H67.9369ZM74.271 5.8776C75.2089 5.88988 76.129 5.97717 77.0531 6.14154L77.5024 6.22129V4.1483L77.1447 4.12454C75.5972 4.02171 74.6611 3.96976 74.349 3.96953C72.9703 3.96953 71.8765 4.15339 71.1147 4.56446C70.3209 4.99283 69.8949 5.66747 69.8949 6.55195V7.41914C69.8949 8.22726 70.1811 8.89791 70.7701 9.38421C71.3558 9.86776 72.1799 10.0785 73.1803 10.0786H74.217C74.7897 10.0786 75.1257 10.163 75.295 10.2701C75.417 10.3473 75.5117 10.4852 75.5116 10.7914V11.7358C75.5144 11.9204 75.4946 12.0089 75.4281 12.1076C75.3731 12.2072 75.327 12.2424 75.1905 12.2911C74.8808 12.4122 74.3727 12.4862 73.6325 12.4866C73.0511 12.4872 72.0261 12.3682 70.5269 12.1256L70.0834 12.0538V14.17L70.412 14.2174C71.4617 14.3683 72.5332 14.4477 73.5932 14.453H73.595C74.9051 14.453 75.9642 14.2577 76.7314 13.8259C77.571 13.3534 77.9547 12.5061 77.9547 11.4081V10.5987C77.9547 9.77357 77.6783 9.09794 77.0819 8.64356C76.5056 8.20454 75.6867 8.01628 74.6882 8.01628H74.3053V8.01665H73.6327C73.0965 8.01665 72.7556 7.93901 72.5612 7.82959C72.399 7.73826 72.338 7.62883 72.338 7.45802V6.66757C72.338 6.35856 72.4432 6.19909 72.6222 6.09861C72.8457 5.97315 73.3633 5.87777 74.271 5.8776ZM79.7054 7.53478C79.7057 6.32326 80.0471 5.36762 80.8186 4.77999C81.5594 4.21567 82.6866 3.97014 84.1217 3.97014C85.4706 3.97031 86.5379 4.20709 87.2472 4.75267C87.9932 5.32647 88.3117 6.29816 88.3118 7.53476V10.0241H82.1863V11.0034C82.1866 11.5594 82.3704 11.8813 82.6807 12.0711C83.0447 12.2937 83.6338 12.4298 84.4988 12.4298C85.3372 12.4308 86.3132 12.2834 87.4748 11.9796L87.9537 11.8546V13.989L87.6568 14.058C86.5537 14.3135 85.4054 14.4476 84.2743 14.4532L84.2726 14.4532C82.8466 14.4534 81.7098 14.2126 80.9197 13.6741C80.1031 13.1175 79.7054 12.2762 79.7054 11.2156V7.53478ZM13.6728 6.99518L13.6859 8.09639H17.3495L17.3364 6.99518C17.3364 6.50368 17.1928 6.27202 17.0085 6.15691C16.7651 6.00481 16.2921 5.89687 15.514 5.89687C14.7806 5.89687 14.3014 5.99933 14.0236 6.15603C13.8239 6.26871 13.6728 6.49744 13.6728 6.99518ZM82.1867 6.99518L82.1846 8.09639H85.8481L85.8502 6.99523C85.8501 6.50369 85.7065 6.272 85.5223 6.15689C85.2789 6.00482 84.806 5.89687 84.0278 5.89687C83.2943 5.89687 82.8151 5.99933 82.5374 6.15601C82.3378 6.26867 82.1867 6.4974 82.1867 6.99518Z" fill="white"/>
<path fill-rule="evenodd" clip-rule="evenodd" d="M105.869 9.83133L105.851 10.4096H99.7254L99.6811 10.0751L99.127 6.11149L96.5335 16H94.5416L93.1402 10.0241H90.458V8.09639H94.8629L94.9041 8.31072L95.5913 11.2617L98.4906 0H100.557L100.598 0.338831L101.558 8.48193H105.851L105.869 8.6747V9.83133Z" fill="white"/>
<path d="M107.573 9.44579C107.573 10.5637 106.674 11.4699 105.563 11.4699C104.454 11.4699 103.554 10.5637 103.554 9.44579C103.554 8.32791 104.454 7.42169 105.563 7.42169C106.674 7.42169 107.573 8.32791 107.573 9.44579Z" fill="white"/>
<path d="M24.6188 4.33461C24.4956 4.38927 24.3807 4.45105 24.2749 4.52008V4.16224H21.8129V14.2606H24.2749V7.13032C24.2749 6.60618 24.423 6.35974 24.6073 6.24103C24.8415 6.09013 25.4002 5.97403 26.3988 5.9742L26.4033 5.9742L26.4078 5.97409C26.74 5.96536 27.0453 6.00128 27.3669 6.08692L27.3733 6.08859L27.3796 6.09003C27.5505 6.12386 27.6565 6.18638 27.7676 6.32023C27.8509 6.42431 27.8961 6.51368 27.9303 6.64228C27.9662 6.80654 27.9802 6.95347 27.9763 7.12246L27.9762 7.12627V14.2604H30.4382V7.03372C30.4382 6.0743 30.1964 5.28532 29.6438 4.74363C29.0779 4.18897 28.1145 3.96938 26.8888 3.96953C25.9556 3.96954 25.1889 4.08171 24.6188 4.33461Z" fill="white"/>
</svg>
