<svg width="229" height="34" viewBox="0 0 229 34" fill="none" xmlns="http://www.w3.org/2000/svg">
<path fill-rule="evenodd" clip-rule="evenodd" d="M18.1386 15.1745C19.3106 16.3903 19.8106 18.2196 19.8115 20.4746V22.3996C19.8117 25.372 18.9841 27.6588 17.0922 28.9536C15.3139 30.1708 12.658 30.7129 9.26543 30.7129H9.25916L9.25288 30.7128C6.57131 30.6706 3.86839 30.4473 1.21502 30.0487L0.521687 29.9444V24.9066L1.50628 25.1199C4.62132 25.7956 7.25917 26.1269 9.50549 26.1253C11.3061 26.1255 12.584 25.9159 13.4082 25.5584C13.7849 25.4056 13.955 25.2595 14.1212 24.9456C14.3127 24.6283 14.3835 24.3011 14.3783 23.7515V20.3117C14.3786 19.337 14.1095 18.8355 13.7602 18.5697C13.3611 18.2661 12.4735 18.0187 10.8662 18.0187H7.8223C5.14106 18.018 3.03237 17.474 1.76875 16.1489C0.544947 14.8655 0 13.0381 0 10.8107V8.68123C0.00055844 6.3658 0.817535 4.53063 2.53455 3.33838C4.21346 2.17259 7.11974 1.67843 11.0264 1.67843H11.0308L11.0351 1.67848C13.2944 1.70298 15.5734 1.85643 17.8163 2.13507L18.5301 2.22384V6.89404L17.5916 6.7471C14.6498 6.28617 12.3892 6.05967 10.7476 6.06067C9.53014 6.06021 8.55795 6.1191 7.76973 6.24063C6.98459 6.36084 6.49574 6.5294 6.22635 6.69653C5.7136 7.01463 5.39161 7.56089 5.39161 8.55838V11.5883C5.392 12.3051 5.62328 12.6912 5.98583 12.9307C6.41064 13.2114 7.33052 13.4312 8.94401 13.4312H12.068C14.7998 13.4314 16.9313 13.9227 18.1386 15.1745ZM33.1677 8.43604C36.0341 8.43639 38.302 8.93955 39.8093 10.0989C41.3946 11.3183 42.0715 13.3833 42.0715 16.0114V21.3012H29.0547V23.3816C29.0552 24.5633 29.4458 25.2473 30.1053 25.6505C30.8788 26.1235 32.1305 26.4128 33.9686 26.4128C35.7505 26.415 37.8245 26.1017 40.2929 25.4562L41.3105 25.1905V29.7262L40.6798 29.8726C38.3354 30.4156 35.8953 30.7007 33.4915 30.7126L33.488 30.7126C30.4579 30.7129 28.0421 30.2013 26.3634 29.057C24.6279 27.8741 23.783 26.0865 23.783 23.8326V16.0111C23.7837 13.4366 24.509 11.4057 26.1484 10.157C27.7228 8.95778 30.1181 8.43604 33.1677 8.43604ZM82.7988 1.63855H88.0295V30.3039H82.8789V29.4838C82.6944 29.5945 82.5006 29.6976 82.3013 29.7937C80.9861 30.4274 79.2674 30.7134 77.2041 30.7134C74.3629 30.7129 72.1499 30.2661 70.7766 29.1892C69.332 28.0563 68.7407 26.0831 68.7407 23.5877V14.8652C68.7409 12.7055 69.4 10.9777 70.8803 9.90126C72.2983 8.87014 74.5339 8.43609 77.4014 8.4358C78.8927 8.42467 80.4382 8.64957 81.8669 9.08565L81.8703 9.08667L81.8736 9.08772C82.2136 9.1953 82.5358 9.32531 82.8294 9.48045C82.8091 8.36022 82.7989 7.45167 82.7988 6.7571V1.63855ZM78.2857 12.6527C80.0199 12.6527 81.2002 12.8737 81.9188 13.2328C82.5726 13.5595 82.7987 13.9646 82.7988 14.4952V24.2823C82.7988 25.1362 82.4881 25.6249 81.8981 25.9312C81.1829 26.3022 79.912 26.5369 77.9653 26.5364C76.2272 26.5364 75.1799 26.2989 74.6526 25.9656C74.2226 25.6938 73.9323 25.2122 73.9323 24.2844V14.4962C73.9323 13.5081 74.2147 13.1835 74.4624 13.0594C74.6598 12.9604 75.0575 12.8499 75.7314 12.7706C76.4006 12.6914 77.2364 12.6527 78.2857 12.6527ZM107.645 2.57964C106.807 2.37887 105.924 2.23977 105.066 2.17347L105.061 2.17312C104.27 2.11771 103.32 2.0895 102.241 2.08923H92.9357V30.3039H98.4478V20.7209H101.519C104.731 20.7209 107.324 20.2439 109.217 19.2089C111.246 18.0997 112.226 16.1897 112.226 13.6771V8.15535C112.226 8.15535 112.011 6.21592 111.593 5.39497L111.576 5.39916L111.591 5.39139C111.223 4.70332 110.65 4.03721 110.028 3.57614L110.011 3.56399L109.994 3.5527C109.297 3.09964 108.456 2.75104 107.645 2.57964ZM105.599 15.8022L105.6 15.8018C106.368 15.3859 106.794 14.681 106.794 13.4724V8.62419L106.795 8.60811C106.826 8.0992 106.714 7.72395 106.41 7.32691C106.09 6.92765 105.753 6.71852 105.258 6.61217L105.238 6.60737L105.218 6.60153C104.685 6.44501 104.174 6.34263 103.623 6.28205C103.178 6.24318 102.636 6.22435 101.96 6.22447H98.4082V16.5852H102.04C103.5 16.5901 104.62 16.3429 105.599 15.8022ZM134.692 8.84477V30.3039H129.46V29.5441C129.235 29.6909 128.991 29.8224 128.729 29.9386C127.517 30.476 125.888 30.7144 123.905 30.7144C121.301 30.7141 119.254 30.2474 118.051 29.0697C116.877 27.9191 116.363 26.2423 116.363 24.203V8.84632H121.595V24.0064L121.595 24.0145C121.586 24.3738 121.616 24.6862 121.693 25.0356C121.765 25.31 121.861 25.4996 122.04 25.7215C122.275 26.0051 122.499 26.1371 122.861 26.208L122.876 26.2113L122.89 26.2151C123.573 26.3974 124.221 26.4737 124.927 26.4547L124.937 26.4545L124.946 26.4545C126.948 26.454 128.165 26.2552 128.754 25.9646C129.198 25.7462 129.46 25.3729 129.46 24.612V8.84477H134.692ZM144.366 1.63854V30.3039H139.134V1.63854H144.366ZM157.826 12.4899C159.819 12.516 161.774 12.7015 163.738 13.0508L164.692 13.2202V8.81514L163.933 8.76464C160.644 8.54614 158.655 8.43575 157.992 8.43526C155.062 8.43526 152.738 8.82595 151.119 9.69948C149.432 10.6098 148.527 12.0434 148.527 13.9229V15.7657C148.527 17.4829 149.135 18.9081 150.386 19.9415C151.631 20.969 153.382 21.4169 155.508 21.4171H157.711C158.928 21.4171 159.642 21.5964 160.002 21.8239C160.261 21.988 160.462 22.281 160.462 22.9318V24.9386C160.468 25.3309 160.426 25.5189 160.285 25.7287C160.168 25.9404 160.07 26.0152 159.78 26.1186C159.122 26.3759 158.042 26.5332 156.469 26.5341C155.234 26.5354 153.055 26.2825 149.87 25.7669L148.927 25.6144V30.1113L149.626 30.2119C151.856 30.5327 154.133 30.7013 156.385 30.7126H156.389C159.173 30.7126 161.424 30.2976 163.054 29.38C164.838 28.3759 165.654 26.5755 165.654 24.2422V22.5222C165.654 20.7688 165.066 19.3331 163.799 18.3676C162.574 17.4346 160.834 17.0346 158.712 17.0346H157.899V17.0354H156.469C155.33 17.0354 154.606 16.8704 154.193 16.6379C153.848 16.4438 153.718 16.2113 153.718 15.8483V14.1686C153.718 13.5119 153.942 13.1731 154.322 12.9595C154.797 12.6929 155.897 12.4903 157.826 12.4899ZM169.374 16.0114C169.375 13.4369 170.1 11.4062 171.739 10.1575C173.314 8.9583 175.709 8.43656 178.759 8.43656C181.625 8.43691 183.893 8.94007 185.4 10.0994C186.985 11.3188 187.662 13.3836 187.663 16.0114V21.3012H174.646V23.3822C174.646 24.5638 175.037 25.2478 175.697 25.6511C176.47 26.1241 177.722 26.4133 179.56 26.4133C181.342 26.4156 183.416 26.1022 185.884 25.4567L186.902 25.1911V29.7267L186.271 29.8732C183.926 30.4161 181.486 30.7012 179.083 30.7131L179.079 30.7131C176.049 30.7134 173.633 30.2018 171.954 29.0576C170.219 27.8746 169.374 26.087 169.374 23.8332V16.0114ZM29.0547 14.8648L29.0826 17.2048H36.8678L36.8399 14.8648C36.8399 13.8203 36.5346 13.328 36.1431 13.0834C35.6258 12.7602 34.6207 12.5308 32.9673 12.5308C31.4087 12.5308 30.3905 12.7486 29.8002 13.0816C29.3758 13.321 29.0547 13.8071 29.0547 14.8648ZM174.647 14.8648L174.642 17.2048H182.427L182.432 14.8649C182.431 13.8204 182.126 13.328 181.735 13.0834C181.218 12.7602 180.213 12.5308 178.559 12.5308C177 12.5308 175.982 12.7486 175.392 13.0815C174.968 13.3209 174.647 13.807 174.647 14.8648Z" fill="#0097B7"/>
<path fill-rule="evenodd" clip-rule="evenodd" d="M224.972 20.8916L224.932 22.1205H211.917L211.822 21.4095L210.645 12.9869L205.134 34H200.901L197.923 21.3012H192.223V17.2048H201.584L201.671 17.6603L203.132 23.9311L209.293 0H213.684L213.771 0.720016L215.811 18.0241H224.932L224.972 18.4337V20.8916Z" fill="#0097B7"/>
<path d="M228.593 20.0723C228.593 22.4478 226.681 24.3735 224.322 24.3735C221.964 24.3735 220.052 22.4478 220.052 20.0723C220.052 17.6968 221.964 15.7711 224.322 15.7711C226.681 15.7711 228.593 17.6968 228.593 20.0723Z" fill="#0097B7"/>
<path d="M52.315 9.21104C52.0532 9.32719 51.8089 9.45849 51.5841 9.60517V8.84477H46.3525V30.3039H51.5841V15.1519C51.5841 14.0381 51.8989 13.5144 52.2904 13.2622C52.7882 12.9415 53.9755 12.6948 56.0974 12.6952L56.1069 12.6952L56.1165 12.6949C56.8224 12.6764 57.4712 12.7527 58.1547 12.9347L58.1682 12.9382L58.1817 12.9413C58.5448 13.0132 58.77 13.146 59.0062 13.4305C59.1831 13.6517 59.2793 13.8416 59.3518 14.1148C59.4281 14.4639 59.458 14.7761 59.4496 15.1352L59.4494 15.1433V30.3033H64.6811V14.9467C64.6811 12.9079 64.1674 11.2313 62.9931 10.0802C61.7906 8.90155 59.7433 8.43492 57.1388 8.43526C55.1557 8.43527 53.5264 8.67362 52.315 9.21104Z" fill="#0097B7"/>
</svg>
